<mxfile host="app.diagrams.net" modified="2023-11-22T16:14:26.645Z" agent="Mozilla/5.0 (X11; Linux x86_64; rv:120.0) Gecko/20100101 Firefox/120.0" etag="F2hiJb9TP7YozASHbn3W" version="22.1.3" type="github">
  <diagram name="Page-1" id="WNkuqnyzK4FkFxuNmjLf">
    <mxGraphModel dx="1708" dy="1818" grid="1" gridSize="10" guides="1" tooltips="1" connect="1" arrows="1" fold="1" page="1" pageScale="1" pageWidth="850" pageHeight="1100" math="0" shadow="0">
      <root>
        <mxCell id="0" />
        <mxCell id="1" parent="0" />
        <mxCell id="jQy6cBqB-IbWYtffIb8F-1" style="edgeStyle=orthogonalEdgeStyle;shape=connector;rounded=0;orthogonalLoop=1;jettySize=auto;html=1;exitX=1;exitY=0;exitDx=0;exitDy=0;labelBackgroundColor=none;fontFamily=Helvetica;fontSize=8;fontColor=default;endArrow=oval;endFill=1;" edge="1" parent="1" source="jQy6cBqB-IbWYtffIb8F-5">
          <mxGeometry relative="1" as="geometry">
            <mxPoint x="380" y="200" as="targetPoint" />
          </mxGeometry>
        </mxCell>
        <mxCell id="jQy6cBqB-IbWYtffIb8F-2" style="edgeStyle=orthogonalEdgeStyle;shape=connector;rounded=0;orthogonalLoop=1;jettySize=auto;html=1;exitX=1;exitY=0.25;exitDx=0;exitDy=0;labelBackgroundColor=none;fontFamily=Helvetica;fontSize=8;fontColor=default;endArrow=oval;endFill=0;" edge="1" parent="1" source="jQy6cBqB-IbWYtffIb8F-5">
          <mxGeometry relative="1" as="geometry">
            <mxPoint x="380" y="210.28571428571433" as="targetPoint" />
          </mxGeometry>
        </mxCell>
        <mxCell id="jQy6cBqB-IbWYtffIb8F-3" style="edgeStyle=orthogonalEdgeStyle;shape=connector;rounded=0;orthogonalLoop=1;jettySize=auto;html=1;exitX=1;exitY=0.5;exitDx=0;exitDy=0;labelBackgroundColor=none;fontFamily=Helvetica;fontSize=8;fontColor=default;endArrow=oval;endFill=0;" edge="1" parent="1" source="jQy6cBqB-IbWYtffIb8F-5">
          <mxGeometry relative="1" as="geometry">
            <mxPoint x="380" y="220" as="targetPoint" />
          </mxGeometry>
        </mxCell>
        <mxCell id="jQy6cBqB-IbWYtffIb8F-4" style="edgeStyle=orthogonalEdgeStyle;shape=connector;rounded=0;orthogonalLoop=1;jettySize=auto;html=1;exitX=0.5;exitY=1;exitDx=0;exitDy=0;entryX=0;entryY=0;entryDx=20;entryDy=0;entryPerimeter=0;labelBackgroundColor=none;fontFamily=Helvetica;fontSize=8;fontColor=default;endArrow=none;endFill=0;" edge="1" parent="1" source="jQy6cBqB-IbWYtffIb8F-5" target="jQy6cBqB-IbWYtffIb8F-51">
          <mxGeometry relative="1" as="geometry" />
        </mxCell>
        <mxCell id="jQy6cBqB-IbWYtffIb8F-5" value="Funcionarios" style="rounded=0;whiteSpace=wrap;html=1;fontFamily=Helvetica;fontSize=11;labelBackgroundColor=none;" vertex="1" parent="1">
          <mxGeometry x="280" y="200" width="80" height="40" as="geometry" />
        </mxCell>
        <mxCell id="jQy6cBqB-IbWYtffIb8F-6" style="edgeStyle=orthogonalEdgeStyle;shape=connector;rounded=0;orthogonalLoop=1;jettySize=auto;html=1;exitX=0;exitY=1;exitDx=0;exitDy=0;labelBackgroundColor=none;fontFamily=Helvetica;fontSize=8;fontColor=default;endArrow=oval;endFill=0;" edge="1" parent="1" source="jQy6cBqB-IbWYtffIb8F-9">
          <mxGeometry relative="1" as="geometry">
            <mxPoint x="320.20000000000005" y="420" as="targetPoint" />
          </mxGeometry>
        </mxCell>
        <mxCell id="jQy6cBqB-IbWYtffIb8F-7" style="edgeStyle=orthogonalEdgeStyle;shape=connector;rounded=0;orthogonalLoop=1;jettySize=auto;html=1;exitX=0.25;exitY=1;exitDx=0;exitDy=0;labelBackgroundColor=none;fontFamily=Helvetica;fontSize=8;fontColor=default;endArrow=oval;endFill=0;" edge="1" parent="1" source="jQy6cBqB-IbWYtffIb8F-9">
          <mxGeometry relative="1" as="geometry">
            <mxPoint x="340.20000000000005" y="420" as="targetPoint" />
          </mxGeometry>
        </mxCell>
        <mxCell id="jQy6cBqB-IbWYtffIb8F-8" style="edgeStyle=orthogonalEdgeStyle;shape=connector;rounded=0;orthogonalLoop=1;jettySize=auto;html=1;exitX=0.5;exitY=1;exitDx=0;exitDy=0;labelBackgroundColor=default;strokeColor=default;fontFamily=Helvetica;fontSize=11;fontColor=default;endArrow=oval;endFill=1;" edge="1" parent="1" source="jQy6cBqB-IbWYtffIb8F-9">
          <mxGeometry relative="1" as="geometry">
            <mxPoint x="359.8333333333335" y="420" as="targetPoint" />
          </mxGeometry>
        </mxCell>
        <mxCell id="jQy6cBqB-IbWYtffIb8F-9" value="Recepcionistas" style="rounded=0;whiteSpace=wrap;html=1;fontFamily=Helvetica;fontSize=11;labelBackgroundColor=none;" vertex="1" parent="1">
          <mxGeometry x="320" y="360" width="80" height="40" as="geometry" />
        </mxCell>
        <mxCell id="jQy6cBqB-IbWYtffIb8F-10" style="edgeStyle=orthogonalEdgeStyle;rounded=0;orthogonalLoop=1;jettySize=auto;html=1;exitX=0;exitY=1;exitDx=0;exitDy=0;endArrow=oval;endFill=0;" edge="1" parent="1" source="jQy6cBqB-IbWYtffIb8F-15">
          <mxGeometry relative="1" as="geometry">
            <mxPoint x="479.8888888888889" y="420" as="targetPoint" />
          </mxGeometry>
        </mxCell>
        <mxCell id="jQy6cBqB-IbWYtffIb8F-11" style="edgeStyle=orthogonalEdgeStyle;shape=connector;rounded=0;orthogonalLoop=1;jettySize=auto;html=1;exitX=1;exitY=0;exitDx=0;exitDy=0;entryX=0.5;entryY=0;entryDx=0;entryDy=0;labelBackgroundColor=default;strokeColor=default;fontFamily=Helvetica;fontSize=11;fontColor=default;endArrow=none;endFill=0;" edge="1" parent="1" source="jQy6cBqB-IbWYtffIb8F-15" target="jQy6cBqB-IbWYtffIb8F-73">
          <mxGeometry relative="1" as="geometry">
            <Array as="points">
              <mxPoint x="610" y="360" />
              <mxPoint x="610" y="360" />
            </Array>
          </mxGeometry>
        </mxCell>
        <mxCell id="jQy6cBqB-IbWYtffIb8F-12" style="edgeStyle=orthogonalEdgeStyle;shape=connector;rounded=0;orthogonalLoop=1;jettySize=auto;html=1;exitX=1;exitY=1;exitDx=0;exitDy=0;entryX=0.5;entryY=1;entryDx=0;entryDy=0;labelBackgroundColor=default;strokeColor=default;fontFamily=Helvetica;fontSize=11;fontColor=default;endArrow=none;endFill=0;" edge="1" parent="1" source="jQy6cBqB-IbWYtffIb8F-15" target="jQy6cBqB-IbWYtffIb8F-73">
          <mxGeometry relative="1" as="geometry">
            <Array as="points">
              <mxPoint x="620" y="400" />
              <mxPoint x="620" y="400" />
            </Array>
          </mxGeometry>
        </mxCell>
        <mxCell id="jQy6cBqB-IbWYtffIb8F-13" style="edgeStyle=orthogonalEdgeStyle;shape=connector;rounded=0;orthogonalLoop=1;jettySize=auto;html=1;exitX=0.25;exitY=1;exitDx=0;exitDy=0;labelBackgroundColor=default;strokeColor=default;fontFamily=Helvetica;fontSize=11;fontColor=default;endArrow=oval;endFill=0;" edge="1" parent="1" source="jQy6cBqB-IbWYtffIb8F-15">
          <mxGeometry relative="1" as="geometry">
            <mxPoint x="500.0344827586207" y="420" as="targetPoint" />
          </mxGeometry>
        </mxCell>
        <mxCell id="jQy6cBqB-IbWYtffIb8F-14" style="edgeStyle=orthogonalEdgeStyle;shape=connector;rounded=0;orthogonalLoop=1;jettySize=auto;html=1;exitX=0.5;exitY=1;exitDx=0;exitDy=0;labelBackgroundColor=default;strokeColor=default;fontFamily=Helvetica;fontSize=11;fontColor=default;endArrow=oval;endFill=1;" edge="1" parent="1" source="jQy6cBqB-IbWYtffIb8F-15">
          <mxGeometry relative="1" as="geometry">
            <mxPoint x="519.8333333333335" y="420" as="targetPoint" />
          </mxGeometry>
        </mxCell>
        <mxCell id="jQy6cBqB-IbWYtffIb8F-15" value="Camareiras" style="rounded=0;whiteSpace=wrap;html=1;fontFamily=Helvetica;fontSize=11;labelBackgroundColor=none;" vertex="1" parent="1">
          <mxGeometry x="480" y="360" width="80" height="40" as="geometry" />
        </mxCell>
        <mxCell id="jQy6cBqB-IbWYtffIb8F-16" style="edgeStyle=orthogonalEdgeStyle;shape=connector;rounded=0;orthogonalLoop=1;jettySize=auto;html=1;exitX=1;exitY=0;exitDx=0;exitDy=0;labelBackgroundColor=none;fontFamily=Helvetica;fontSize=11;fontColor=default;endArrow=oval;endFill=1;" edge="1" parent="1" source="jQy6cBqB-IbWYtffIb8F-24">
          <mxGeometry relative="1" as="geometry">
            <mxPoint x="300" y="40" as="targetPoint" />
          </mxGeometry>
        </mxCell>
        <mxCell id="jQy6cBqB-IbWYtffIb8F-17" style="edgeStyle=orthogonalEdgeStyle;shape=connector;rounded=0;orthogonalLoop=1;jettySize=auto;html=1;exitX=1;exitY=0.25;exitDx=0;exitDy=0;labelBackgroundColor=none;fontFamily=Helvetica;fontSize=11;fontColor=default;endArrow=oval;endFill=0;" edge="1" parent="1" source="jQy6cBqB-IbWYtffIb8F-24">
          <mxGeometry relative="1" as="geometry">
            <mxPoint x="300" y="50" as="targetPoint" />
          </mxGeometry>
        </mxCell>
        <mxCell id="jQy6cBqB-IbWYtffIb8F-18" style="edgeStyle=orthogonalEdgeStyle;shape=connector;rounded=0;orthogonalLoop=1;jettySize=auto;html=1;exitX=1;exitY=0.5;exitDx=0;exitDy=0;labelBackgroundColor=none;fontFamily=Helvetica;fontSize=11;fontColor=default;endArrow=oval;endFill=0;" edge="1" parent="1" source="jQy6cBqB-IbWYtffIb8F-24">
          <mxGeometry relative="1" as="geometry">
            <mxPoint x="300" y="60" as="targetPoint" />
          </mxGeometry>
        </mxCell>
        <mxCell id="jQy6cBqB-IbWYtffIb8F-19" style="edgeStyle=orthogonalEdgeStyle;shape=connector;rounded=0;orthogonalLoop=1;jettySize=auto;html=1;exitX=0.5;exitY=1;exitDx=0;exitDy=0;entryX=0;entryY=0;entryDx=20;entryDy=0;entryPerimeter=0;labelBackgroundColor=none;fontFamily=Helvetica;fontSize=8;fontColor=default;endArrow=none;endFill=0;" edge="1" parent="1" source="jQy6cBqB-IbWYtffIb8F-24" target="jQy6cBqB-IbWYtffIb8F-37">
          <mxGeometry relative="1" as="geometry" />
        </mxCell>
        <mxCell id="jQy6cBqB-IbWYtffIb8F-20" style="edgeStyle=orthogonalEdgeStyle;shape=connector;rounded=0;orthogonalLoop=1;jettySize=auto;html=1;exitX=1;exitY=0.75;exitDx=0;exitDy=0;labelBackgroundColor=none;fontFamily=Helvetica;fontSize=8;fontColor=default;endArrow=oval;endFill=0;" edge="1" parent="1" source="jQy6cBqB-IbWYtffIb8F-24">
          <mxGeometry relative="1" as="geometry">
            <mxPoint x="300" y="70.28571428571433" as="targetPoint" />
          </mxGeometry>
        </mxCell>
        <mxCell id="jQy6cBqB-IbWYtffIb8F-21" style="edgeStyle=orthogonalEdgeStyle;shape=connector;rounded=0;orthogonalLoop=1;jettySize=auto;html=1;exitX=0.5;exitY=1;exitDx=0;exitDy=0;entryX=0;entryY=0;entryDx=20;entryDy=0;entryPerimeter=0;labelBackgroundColor=none;fontFamily=Helvetica;fontSize=8;fontColor=default;endArrow=none;endFill=0;" edge="1" parent="1" source="jQy6cBqB-IbWYtffIb8F-24" target="jQy6cBqB-IbWYtffIb8F-48">
          <mxGeometry relative="1" as="geometry" />
        </mxCell>
        <mxCell id="jQy6cBqB-IbWYtffIb8F-22" style="edgeStyle=orthogonalEdgeStyle;shape=connector;rounded=0;orthogonalLoop=1;jettySize=auto;html=1;exitX=1;exitY=1;exitDx=0;exitDy=0;labelBackgroundColor=none;fontFamily=Helvetica;fontSize=8;fontColor=default;endArrow=oval;endFill=0;" edge="1" parent="1" source="jQy6cBqB-IbWYtffIb8F-24">
          <mxGeometry relative="1" as="geometry">
            <mxPoint x="300" y="80" as="targetPoint" />
          </mxGeometry>
        </mxCell>
        <mxCell id="jQy6cBqB-IbWYtffIb8F-23" style="edgeStyle=orthogonalEdgeStyle;shape=connector;rounded=0;orthogonalLoop=1;jettySize=auto;html=1;exitX=1;exitY=1;exitDx=0;exitDy=0;labelBackgroundColor=none;fontFamily=Helvetica;fontSize=8;fontColor=default;endArrow=oval;endFill=0;" edge="1" parent="1" source="jQy6cBqB-IbWYtffIb8F-24">
          <mxGeometry relative="1" as="geometry">
            <mxPoint x="300" y="90" as="targetPoint" />
            <Array as="points">
              <mxPoint x="280" y="90" />
            </Array>
          </mxGeometry>
        </mxCell>
        <mxCell id="jQy6cBqB-IbWYtffIb8F-24" value="Pessoas" style="rounded=0;whiteSpace=wrap;html=1;fontFamily=Helvetica;fontSize=11;labelBackgroundColor=none;" vertex="1" parent="1">
          <mxGeometry x="200" y="40" width="80" height="40" as="geometry" />
        </mxCell>
        <mxCell id="jQy6cBqB-IbWYtffIb8F-25" style="edgeStyle=orthogonalEdgeStyle;shape=connector;rounded=0;orthogonalLoop=1;jettySize=auto;html=1;exitX=0;exitY=0;exitDx=0;exitDy=0;labelBackgroundColor=none;fontFamily=Helvetica;fontSize=8;fontColor=default;endArrow=oval;endFill=1;" edge="1" parent="1" source="jQy6cBqB-IbWYtffIb8F-28">
          <mxGeometry relative="1" as="geometry">
            <mxPoint x="100" y="200" as="targetPoint" />
          </mxGeometry>
        </mxCell>
        <mxCell id="jQy6cBqB-IbWYtffIb8F-26" style="edgeStyle=orthogonalEdgeStyle;shape=connector;rounded=0;orthogonalLoop=1;jettySize=auto;html=1;exitX=0;exitY=0.25;exitDx=0;exitDy=0;labelBackgroundColor=none;fontFamily=Helvetica;fontSize=8;fontColor=default;endArrow=oval;endFill=0;" edge="1" parent="1" source="jQy6cBqB-IbWYtffIb8F-28">
          <mxGeometry relative="1" as="geometry">
            <mxPoint x="100" y="210" as="targetPoint" />
          </mxGeometry>
        </mxCell>
        <mxCell id="jQy6cBqB-IbWYtffIb8F-28" value="Clientes" style="rounded=0;whiteSpace=wrap;html=1;fontFamily=Helvetica;fontSize=11;labelBackgroundColor=none;" vertex="1" parent="1">
          <mxGeometry x="120" y="200" width="80" height="40" as="geometry" />
        </mxCell>
        <mxCell id="jQy6cBqB-IbWYtffIb8F-29" style="edgeStyle=orthogonalEdgeStyle;shape=connector;rounded=0;orthogonalLoop=1;jettySize=auto;html=1;exitX=1;exitY=0;exitDx=0;exitDy=0;labelBackgroundColor=none;fontFamily=Helvetica;fontSize=8;fontColor=default;endArrow=oval;endFill=1;" edge="1" parent="1" source="jQy6cBqB-IbWYtffIb8F-34">
          <mxGeometry relative="1" as="geometry">
            <mxPoint x="300" y="560" as="targetPoint" />
          </mxGeometry>
        </mxCell>
        <mxCell id="jQy6cBqB-IbWYtffIb8F-30" style="edgeStyle=orthogonalEdgeStyle;shape=connector;rounded=0;orthogonalLoop=1;jettySize=auto;html=1;exitX=1;exitY=0.25;exitDx=0;exitDy=0;labelBackgroundColor=none;fontFamily=Helvetica;fontSize=8;fontColor=default;endArrow=oval;endFill=0;" edge="1" parent="1" source="jQy6cBqB-IbWYtffIb8F-34">
          <mxGeometry relative="1" as="geometry">
            <mxPoint x="300" y="570" as="targetPoint" />
          </mxGeometry>
        </mxCell>
        <mxCell id="jQy6cBqB-IbWYtffIb8F-31" style="edgeStyle=orthogonalEdgeStyle;shape=connector;rounded=0;orthogonalLoop=1;jettySize=auto;html=1;exitX=1;exitY=0.5;exitDx=0;exitDy=0;labelBackgroundColor=none;fontFamily=Helvetica;fontSize=8;fontColor=default;endArrow=oval;endFill=0;" edge="1" parent="1" source="jQy6cBqB-IbWYtffIb8F-34">
          <mxGeometry relative="1" as="geometry">
            <mxPoint x="300" y="580" as="targetPoint" />
          </mxGeometry>
        </mxCell>
        <mxCell id="jQy6cBqB-IbWYtffIb8F-32" style="edgeStyle=orthogonalEdgeStyle;shape=connector;rounded=0;orthogonalLoop=1;jettySize=auto;html=1;exitX=1;exitY=0.75;exitDx=0;exitDy=0;labelBackgroundColor=none;fontFamily=Helvetica;fontSize=8;fontColor=default;endArrow=oval;endFill=0;" edge="1" parent="1" source="jQy6cBqB-IbWYtffIb8F-34">
          <mxGeometry relative="1" as="geometry">
            <mxPoint x="300" y="590" as="targetPoint" />
          </mxGeometry>
        </mxCell>
        <mxCell id="jQy6cBqB-IbWYtffIb8F-33" style="edgeStyle=orthogonalEdgeStyle;shape=connector;rounded=0;orthogonalLoop=1;jettySize=auto;html=1;exitX=0.5;exitY=1;exitDx=0;exitDy=0;entryX=0.5;entryY=0;entryDx=0;entryDy=0;labelBackgroundColor=default;strokeColor=default;fontFamily=Helvetica;fontSize=11;fontColor=default;endArrow=none;endFill=0;" edge="1" parent="1" source="jQy6cBqB-IbWYtffIb8F-34" target="jQy6cBqB-IbWYtffIb8F-53">
          <mxGeometry relative="1" as="geometry" />
        </mxCell>
        <mxCell id="jQy6cBqB-IbWYtffIb8F-34" value="Quartos" style="rounded=0;whiteSpace=wrap;html=1;labelBackgroundColor=none;" vertex="1" parent="1">
          <mxGeometry x="200" y="560" width="80" height="40" as="geometry" />
        </mxCell>
        <mxCell id="jQy6cBqB-IbWYtffIb8F-35" value="codPessoa&#xa;nome&#xa;cpf&#xa;sexo&#xa;[cep]&#xa;[telefone]&#xa;&#xa;" style="text;align=left;verticalAlign=top;resizable=0;points=[];autosize=1;strokeColor=none;fillColor=none;fontSize=8;fontFamily=Helvetica;labelPosition=center;verticalLabelPosition=middle;spacingBottom=0;spacing=0;strokeWidth=0;labelBackgroundColor=none;" vertex="1" parent="1">
          <mxGeometry x="310" y="30" width="60" height="70" as="geometry" />
        </mxCell>
        <mxCell id="jQy6cBqB-IbWYtffIb8F-36" style="edgeStyle=orthogonalEdgeStyle;shape=connector;rounded=0;orthogonalLoop=1;jettySize=auto;html=1;exitX=0.5;exitY=1;exitDx=0;exitDy=0;exitPerimeter=0;entryX=0.5;entryY=0;entryDx=0;entryDy=0;labelBackgroundColor=none;fontFamily=Helvetica;fontSize=8;fontColor=default;endArrow=none;endFill=0;" edge="1" parent="1" source="jQy6cBqB-IbWYtffIb8F-37" target="jQy6cBqB-IbWYtffIb8F-28">
          <mxGeometry relative="1" as="geometry" />
        </mxCell>
        <mxCell id="jQy6cBqB-IbWYtffIb8F-37" value="" style="verticalLabelPosition=bottom;verticalAlign=top;html=1;shape=mxgraph.basic.acute_triangle;dx=0.5;strokeWidth=1;fontFamily=Helvetica;fontSize=8;fillColor=none;labelBackgroundColor=none;" vertex="1" parent="1">
          <mxGeometry x="180" y="120" width="40" height="40" as="geometry" />
        </mxCell>
        <mxCell id="jQy6cBqB-IbWYtffIb8F-38" value="&lt;div&gt;codCliente&lt;br&gt;&lt;/div&gt;&lt;div&gt;[emailPessoal]&lt;/div&gt;&lt;div&gt;&lt;br&gt;&lt;/div&gt;" style="text;html=1;align=right;verticalAlign=middle;resizable=0;points=[];autosize=1;strokeColor=none;fillColor=none;fontSize=8;fontFamily=Helvetica;labelBackgroundColor=none;" vertex="1" parent="1">
          <mxGeometry x="10" y="190" width="80" height="40" as="geometry" />
        </mxCell>
        <mxCell id="jQy6cBqB-IbWYtffIb8F-39" value="&lt;div&gt;matriculaFuncionário&lt;/div&gt;&lt;div&gt;emailCorporativo&lt;br&gt;&lt;/div&gt;&lt;div&gt;salario&lt;br&gt;&lt;/div&gt;" style="text;html=1;align=left;verticalAlign=middle;resizable=0;points=[];autosize=1;strokeColor=none;fillColor=none;fontSize=8;fontFamily=Helvetica;labelBackgroundColor=none;" vertex="1" parent="1">
          <mxGeometry x="390" y="190" width="100" height="40" as="geometry" />
        </mxCell>
        <mxCell id="jQy6cBqB-IbWYtffIb8F-40" value="idQuarto&#xa;numeroQuarto&#xa;tipoLuxo&#xa;emManutencao&#xa;&#xa;" style="text;align=left;verticalAlign=top;resizable=0;points=[];autosize=1;strokeColor=none;fillColor=none;fontSize=8;fontFamily=Helvetica;labelPosition=center;verticalLabelPosition=middle;spacingBottom=0;spacing=0;strokeWidth=0;labelBackgroundColor=none;" vertex="1" parent="1">
          <mxGeometry x="310" y="550" width="70" height="60" as="geometry" />
        </mxCell>
        <mxCell id="jQy6cBqB-IbWYtffIb8F-41" style="edgeStyle=orthogonalEdgeStyle;shape=connector;rounded=0;orthogonalLoop=1;jettySize=auto;html=1;exitX=1;exitY=0;exitDx=0;exitDy=0;labelBackgroundColor=none;fontFamily=Helvetica;fontSize=8;fontColor=default;endArrow=oval;endFill=1;" edge="1" parent="1" source="jQy6cBqB-IbWYtffIb8F-44">
          <mxGeometry relative="1" as="geometry">
            <mxPoint x="300" y="720" as="targetPoint" />
          </mxGeometry>
        </mxCell>
        <mxCell id="jQy6cBqB-IbWYtffIb8F-42" style="edgeStyle=orthogonalEdgeStyle;shape=connector;rounded=0;orthogonalLoop=1;jettySize=auto;html=1;exitX=1;exitY=0.25;exitDx=0;exitDy=0;labelBackgroundColor=none;fontFamily=Helvetica;fontSize=8;fontColor=default;endArrow=oval;endFill=0;" edge="1" parent="1" source="jQy6cBqB-IbWYtffIb8F-44">
          <mxGeometry relative="1" as="geometry">
            <mxPoint x="300" y="730" as="targetPoint" />
          </mxGeometry>
        </mxCell>
        <mxCell id="jQy6cBqB-IbWYtffIb8F-43" style="edgeStyle=orthogonalEdgeStyle;shape=connector;rounded=0;orthogonalLoop=1;jettySize=auto;html=1;exitX=1;exitY=0.5;exitDx=0;exitDy=0;labelBackgroundColor=none;fontFamily=Helvetica;fontSize=8;fontColor=default;endArrow=oval;endFill=0;" edge="1" parent="1" source="jQy6cBqB-IbWYtffIb8F-44">
          <mxGeometry relative="1" as="geometry">
            <mxPoint x="300" y="740" as="targetPoint" />
          </mxGeometry>
        </mxCell>
        <mxCell id="jQy6cBqB-IbWYtffIb8F-44" value="Categorias" style="rounded=0;whiteSpace=wrap;html=1;labelBackgroundColor=none;" vertex="1" parent="1">
          <mxGeometry x="200" y="720" width="80" height="40" as="geometry" />
        </mxCell>
        <mxCell id="jQy6cBqB-IbWYtffIb8F-45" value="idCategoria&#xa;qntdCamaSolteiro&#xa;qntdCamaCasal&#xa;" style="text;align=left;verticalAlign=top;resizable=0;points=[];autosize=1;strokeColor=none;fillColor=none;fontSize=8;fontFamily=Helvetica;labelPosition=center;verticalLabelPosition=middle;spacingBottom=0;spacing=0;strokeWidth=0;labelBackgroundColor=none;" vertex="1" parent="1">
          <mxGeometry x="310" y="710" width="80" height="40" as="geometry" />
        </mxCell>
        <mxCell id="jQy6cBqB-IbWYtffIb8F-46" value="&lt;div&gt;codRecepcionista&lt;br&gt;&lt;/div&gt;&lt;div&gt;&lt;br&gt;&lt;/div&gt;&lt;div&gt;turno&lt;/div&gt;&lt;div&gt;&lt;br&gt;&lt;/div&gt;diasSemana(1,n)" style="text;html=1;align=left;verticalAlign=middle;resizable=0;points=[];autosize=1;strokeColor=none;fillColor=none;fontSize=8;fontFamily=Helvetica;rotation=90;labelBackgroundColor=none;" vertex="1" parent="1">
          <mxGeometry x="295" y="445" width="90" height="60" as="geometry" />
        </mxCell>
        <mxCell id="jQy6cBqB-IbWYtffIb8F-47" style="edgeStyle=orthogonalEdgeStyle;shape=connector;rounded=0;orthogonalLoop=1;jettySize=auto;html=1;exitX=0.5;exitY=1;exitDx=0;exitDy=0;exitPerimeter=0;entryX=0.5;entryY=0;entryDx=0;entryDy=0;labelBackgroundColor=none;fontFamily=Helvetica;fontSize=8;fontColor=default;endArrow=none;endFill=0;" edge="1" parent="1" source="jQy6cBqB-IbWYtffIb8F-48" target="jQy6cBqB-IbWYtffIb8F-5">
          <mxGeometry relative="1" as="geometry" />
        </mxCell>
        <mxCell id="jQy6cBqB-IbWYtffIb8F-48" value="" style="verticalLabelPosition=bottom;verticalAlign=top;html=1;shape=mxgraph.basic.acute_triangle;dx=0.5;strokeWidth=1;fontFamily=Helvetica;fontSize=8;fillColor=none;labelBackgroundColor=none;" vertex="1" parent="1">
          <mxGeometry x="260" y="120" width="40" height="40" as="geometry" />
        </mxCell>
        <mxCell id="jQy6cBqB-IbWYtffIb8F-49" style="edgeStyle=orthogonalEdgeStyle;shape=connector;rounded=0;orthogonalLoop=1;jettySize=auto;html=1;exitX=1;exitY=1;exitDx=0;exitDy=0;exitPerimeter=0;entryX=0.5;entryY=0;entryDx=0;entryDy=0;labelBackgroundColor=none;fontFamily=Helvetica;fontSize=8;fontColor=default;endArrow=none;endFill=0;" edge="1" parent="1" source="jQy6cBqB-IbWYtffIb8F-51" target="jQy6cBqB-IbWYtffIb8F-15">
          <mxGeometry relative="1" as="geometry" />
        </mxCell>
        <mxCell id="jQy6cBqB-IbWYtffIb8F-50" style="edgeStyle=orthogonalEdgeStyle;shape=connector;rounded=0;orthogonalLoop=1;jettySize=auto;html=1;exitX=0;exitY=1;exitDx=0;exitDy=0;exitPerimeter=0;entryX=0.5;entryY=0;entryDx=0;entryDy=0;labelBackgroundColor=none;fontFamily=Helvetica;fontSize=8;fontColor=default;endArrow=none;endFill=0;" edge="1" parent="1" source="jQy6cBqB-IbWYtffIb8F-51" target="jQy6cBqB-IbWYtffIb8F-9">
          <mxGeometry relative="1" as="geometry" />
        </mxCell>
        <mxCell id="jQy6cBqB-IbWYtffIb8F-51" value="" style="verticalLabelPosition=bottom;verticalAlign=top;html=1;shape=mxgraph.basic.acute_triangle;dx=0.5;strokeWidth=1;fontFamily=Helvetica;fontSize=8;fillColor=none;labelBackgroundColor=none;" vertex="1" parent="1">
          <mxGeometry x="420" y="280" width="40" height="40" as="geometry" />
        </mxCell>
        <mxCell id="jQy6cBqB-IbWYtffIb8F-52" style="edgeStyle=orthogonalEdgeStyle;shape=connector;rounded=0;orthogonalLoop=1;jettySize=auto;html=1;exitX=0.5;exitY=1;exitDx=0;exitDy=0;entryX=0.5;entryY=0;entryDx=0;entryDy=0;labelBackgroundColor=default;strokeColor=default;fontFamily=Helvetica;fontSize=11;fontColor=default;endArrow=none;endFill=0;" edge="1" parent="1" source="jQy6cBqB-IbWYtffIb8F-53" target="jQy6cBqB-IbWYtffIb8F-44">
          <mxGeometry relative="1" as="geometry" />
        </mxCell>
        <mxCell id="jQy6cBqB-IbWYtffIb8F-53" value="Pertence" style="rhombus;whiteSpace=wrap;html=1;rounded=0;strokeWidth=1;fontFamily=Helvetica;fontSize=11;labelBackgroundColor=none;" vertex="1" parent="1">
          <mxGeometry x="200" y="640" width="80" height="40" as="geometry" />
        </mxCell>
        <mxCell id="jQy6cBqB-IbWYtffIb8F-54" style="edgeStyle=orthogonalEdgeStyle;shape=connector;rounded=0;orthogonalLoop=1;jettySize=auto;html=1;exitX=0.5;exitY=1;exitDx=0;exitDy=0;entryX=0.5;entryY=0;entryDx=0;entryDy=0;labelBackgroundColor=default;strokeColor=default;fontFamily=Helvetica;fontSize=11;fontColor=default;endArrow=none;endFill=0;" edge="1" parent="1" source="jQy6cBqB-IbWYtffIb8F-57" target="jQy6cBqB-IbWYtffIb8F-69">
          <mxGeometry relative="1" as="geometry" />
        </mxCell>
        <mxCell id="jQy6cBqB-IbWYtffIb8F-55" style="edgeStyle=orthogonalEdgeStyle;shape=connector;rounded=0;orthogonalLoop=1;jettySize=auto;html=1;exitX=0;exitY=0;exitDx=0;exitDy=0;labelBackgroundColor=default;strokeColor=default;fontFamily=Helvetica;fontSize=11;fontColor=default;endArrow=oval;endFill=1;" edge="1" parent="1" source="jQy6cBqB-IbWYtffIb8F-57">
          <mxGeometry relative="1" as="geometry">
            <mxPoint x="-60" y="399.8888888888889" as="targetPoint" />
          </mxGeometry>
        </mxCell>
        <mxCell id="jQy6cBqB-IbWYtffIb8F-56" style="edgeStyle=orthogonalEdgeStyle;shape=connector;rounded=0;orthogonalLoop=1;jettySize=auto;html=1;exitX=0;exitY=0.25;exitDx=0;exitDy=0;labelBackgroundColor=default;strokeColor=default;fontFamily=Helvetica;fontSize=11;fontColor=default;endArrow=oval;endFill=0;" edge="1" parent="1" source="jQy6cBqB-IbWYtffIb8F-57">
          <mxGeometry relative="1" as="geometry">
            <mxPoint x="-60" y="409.8888888888889" as="targetPoint" />
          </mxGeometry>
        </mxCell>
        <mxCell id="jQy6cBqB-IbWYtffIb8F-90" style="edgeStyle=orthogonalEdgeStyle;rounded=0;orthogonalLoop=1;jettySize=auto;html=1;exitX=0.5;exitY=0;exitDx=0;exitDy=0;entryX=0.5;entryY=1;entryDx=0;entryDy=0;endArrow=none;endFill=0;" edge="1" parent="1" source="jQy6cBqB-IbWYtffIb8F-57" target="jQy6cBqB-IbWYtffIb8F-89">
          <mxGeometry relative="1" as="geometry" />
        </mxCell>
        <mxCell id="jQy6cBqB-IbWYtffIb8F-57" value="Reserva" style="rounded=0;whiteSpace=wrap;html=1;fontSize=11;labelBackgroundColor=none;" vertex="1" parent="1">
          <mxGeometry x="-40" y="400" width="80" height="40" as="geometry" />
        </mxCell>
        <mxCell id="jQy6cBqB-IbWYtffIb8F-58" value="&lt;div&gt;codReserva&lt;/div&gt;&lt;div&gt;dataRealizadat&lt;/div&gt;" style="text;html=1;align=right;verticalAlign=middle;resizable=0;points=[];autosize=1;strokeColor=none;fillColor=none;fontSize=8;fontFamily=Helvetica;labelBackgroundColor=none;" vertex="1" parent="1">
          <mxGeometry x="-150" y="390" width="80" height="30" as="geometry" />
        </mxCell>
        <mxCell id="jQy6cBqB-IbWYtffIb8F-59" style="edgeStyle=orthogonalEdgeStyle;shape=connector;rounded=0;orthogonalLoop=1;jettySize=auto;html=1;exitX=0.5;exitY=0;exitDx=0;exitDy=0;entryX=0.5;entryY=1;entryDx=0;entryDy=0;labelBackgroundColor=none;fontFamily=Helvetica;fontSize=11;fontColor=default;endArrow=none;endFill=0;" edge="1" parent="1" source="jQy6cBqB-IbWYtffIb8F-61" target="jQy6cBqB-IbWYtffIb8F-28">
          <mxGeometry relative="1" as="geometry" />
        </mxCell>
        <mxCell id="jQy6cBqB-IbWYtffIb8F-60" style="edgeStyle=orthogonalEdgeStyle;shape=connector;rounded=0;orthogonalLoop=1;jettySize=auto;html=1;exitX=0.5;exitY=1;exitDx=0;exitDy=0;entryX=0.5;entryY=0;entryDx=0;entryDy=0;labelBackgroundColor=none;fontFamily=Helvetica;fontSize=11;fontColor=default;endArrow=none;endFill=0;" edge="1" parent="1" source="jQy6cBqB-IbWYtffIb8F-61" target="jQy6cBqB-IbWYtffIb8F-57">
          <mxGeometry relative="1" as="geometry">
            <Array as="points">
              <mxPoint x="-40" y="360" />
              <mxPoint y="360" />
            </Array>
          </mxGeometry>
        </mxCell>
        <mxCell id="jQy6cBqB-IbWYtffIb8F-61" value="Hospede" style="rhombus;whiteSpace=wrap;html=1;rounded=0;strokeWidth=1;fontFamily=Helvetica;fontSize=11;labelBackgroundColor=none;" vertex="1" parent="1">
          <mxGeometry x="-80" y="280" width="80" height="40" as="geometry" />
        </mxCell>
        <mxCell id="jQy6cBqB-IbWYtffIb8F-62" style="edgeStyle=orthogonalEdgeStyle;rounded=0;orthogonalLoop=1;jettySize=auto;html=1;exitX=1;exitY=0.5;exitDx=0;exitDy=0;entryX=0;entryY=0.5;entryDx=0;entryDy=0;endArrow=none;endFill=0;" edge="1" parent="1" source="jQy6cBqB-IbWYtffIb8F-64" target="jQy6cBqB-IbWYtffIb8F-9">
          <mxGeometry relative="1" as="geometry" />
        </mxCell>
        <mxCell id="jQy6cBqB-IbWYtffIb8F-63" style="edgeStyle=orthogonalEdgeStyle;shape=connector;rounded=0;orthogonalLoop=1;jettySize=auto;html=1;exitX=0;exitY=0.5;exitDx=0;exitDy=0;entryX=1;entryY=0.5;entryDx=0;entryDy=0;labelBackgroundColor=default;strokeColor=default;fontFamily=Helvetica;fontSize=11;fontColor=default;endArrow=none;endFill=0;" edge="1" parent="1" source="jQy6cBqB-IbWYtffIb8F-64" target="jQy6cBqB-IbWYtffIb8F-57">
          <mxGeometry relative="1" as="geometry" />
        </mxCell>
        <mxCell id="jQy6cBqB-IbWYtffIb8F-64" value="Realizou" style="rhombus;whiteSpace=wrap;html=1;rounded=0;strokeWidth=1;fontFamily=Helvetica;fontSize=11;labelBackgroundColor=none;" vertex="1" parent="1">
          <mxGeometry x="160" y="400" width="80" height="40" as="geometry" />
        </mxCell>
        <mxCell id="jQy6cBqB-IbWYtffIb8F-65" value="&lt;div&gt;&lt;font style=&quot;font-size: 12px;&quot;&gt;RIs:&lt;/font&gt;&lt;/div&gt;&lt;div&gt;&lt;font style=&quot;font-size: 12px;&quot;&gt;&lt;br&gt;&lt;/font&gt;&lt;/div&gt;&lt;div&gt;Cliente responsavel=0: Clientes.cep =&amp;nbsp; NULL, Clientes.telefone = NULL, Clientes.emailPessoal = NULL &lt;br&gt;&lt;/div&gt;&lt;div&gt;Cliente responsavel=1: Clientes.cep != NULL, Clientes.telefone != NULL, Clientes.emailPessoal != NULL&lt;/div&gt;&lt;div&gt;Funcionarios:&amp;nbsp;Funcionarios.cep != NULL,&amp;nbsp;Funcionarios.telefone != NULL&lt;/div&gt;" style="text;html=1;align=left;verticalAlign=middle;resizable=0;points=[];autosize=1;strokeColor=none;fillColor=none;fontSize=11;fontFamily=Helvetica;fontColor=default;" vertex="1" parent="1">
          <mxGeometry x="-40" y="-80" width="530" height="80" as="geometry" />
        </mxCell>
        <mxCell id="jQy6cBqB-IbWYtffIb8F-66" style="edgeStyle=orthogonalEdgeStyle;shape=connector;rounded=0;orthogonalLoop=1;jettySize=auto;html=1;exitX=1;exitY=0.5;exitDx=0;exitDy=0;entryX=0;entryY=0.5;entryDx=0;entryDy=0;labelBackgroundColor=default;strokeColor=default;fontFamily=Helvetica;fontSize=11;fontColor=default;endArrow=none;endFill=0;" edge="1" parent="1" source="jQy6cBqB-IbWYtffIb8F-69" target="jQy6cBqB-IbWYtffIb8F-34">
          <mxGeometry relative="1" as="geometry" />
        </mxCell>
        <mxCell id="jQy6cBqB-IbWYtffIb8F-67" style="edgeStyle=orthogonalEdgeStyle;shape=connector;rounded=0;orthogonalLoop=1;jettySize=auto;html=1;exitX=0;exitY=0.5;exitDx=0;exitDy=0;labelBackgroundColor=default;strokeColor=default;fontFamily=Helvetica;fontSize=11;fontColor=default;endArrow=oval;endFill=0;" edge="1" parent="1" source="jQy6cBqB-IbWYtffIb8F-69">
          <mxGeometry relative="1" as="geometry">
            <mxPoint x="-60" y="560" as="targetPoint" />
            <Array as="points">
              <mxPoint x="-40" y="560" />
            </Array>
          </mxGeometry>
        </mxCell>
        <mxCell id="jQy6cBqB-IbWYtffIb8F-68" style="edgeStyle=orthogonalEdgeStyle;shape=connector;rounded=0;orthogonalLoop=1;jettySize=auto;html=1;exitX=0;exitY=0.5;exitDx=0;exitDy=0;labelBackgroundColor=default;strokeColor=default;fontFamily=Helvetica;fontSize=11;fontColor=default;endArrow=oval;endFill=0;" edge="1" parent="1" source="jQy6cBqB-IbWYtffIb8F-69">
          <mxGeometry relative="1" as="geometry">
            <mxPoint x="-60" y="570" as="targetPoint" />
            <Array as="points">
              <mxPoint x="-40" y="570" />
            </Array>
          </mxGeometry>
        </mxCell>
        <mxCell id="jQy6cBqB-IbWYtffIb8F-69" value="Alocado" style="rhombus;whiteSpace=wrap;html=1;rounded=0;strokeWidth=1;fontFamily=Helvetica;fontSize=11;labelBackgroundColor=none;" vertex="1" parent="1">
          <mxGeometry x="-40" y="560" width="80" height="40" as="geometry" />
        </mxCell>
        <mxCell id="jQy6cBqB-IbWYtffIb8F-70" style="edgeStyle=orthogonalEdgeStyle;shape=connector;rounded=0;orthogonalLoop=1;jettySize=auto;html=1;exitX=1;exitY=0.5;exitDx=0;exitDy=0;entryX=0;entryY=0.5;entryDx=0;entryDy=0;labelBackgroundColor=default;strokeColor=default;fontFamily=Helvetica;fontSize=11;fontColor=default;endArrow=none;endFill=0;" edge="1" parent="1" source="jQy6cBqB-IbWYtffIb8F-72" target="jQy6cBqB-IbWYtffIb8F-15">
          <mxGeometry relative="1" as="geometry">
            <Array as="points">
              <mxPoint x="440" y="500" />
              <mxPoint x="440" y="380" />
            </Array>
          </mxGeometry>
        </mxCell>
        <mxCell id="jQy6cBqB-IbWYtffIb8F-71" style="edgeStyle=orthogonalEdgeStyle;shape=connector;rounded=0;orthogonalLoop=1;jettySize=auto;html=1;exitX=0;exitY=0.5;exitDx=0;exitDy=0;entryX=1;entryY=1;entryDx=0;entryDy=0;labelBackgroundColor=default;strokeColor=default;fontFamily=Helvetica;fontSize=11;fontColor=default;endArrow=none;endFill=0;" edge="1" parent="1" source="jQy6cBqB-IbWYtffIb8F-72" target="jQy6cBqB-IbWYtffIb8F-57">
          <mxGeometry relative="1" as="geometry" />
        </mxCell>
        <mxCell id="jQy6cBqB-IbWYtffIb8F-72" value="Limpeza" style="rhombus;whiteSpace=wrap;html=1;rounded=0;strokeWidth=1;fontFamily=Helvetica;fontSize=11;labelBackgroundColor=none;" vertex="1" parent="1">
          <mxGeometry x="160" y="480" width="80" height="40" as="geometry" />
        </mxCell>
        <mxCell id="jQy6cBqB-IbWYtffIb8F-73" value="Supervisão" style="rhombus;whiteSpace=wrap;html=1;rounded=0;strokeWidth=1;fontFamily=Helvetica;fontSize=11;labelBackgroundColor=none;" vertex="1" parent="1">
          <mxGeometry x="600" y="360" width="80" height="40" as="geometry" />
        </mxCell>
        <mxCell id="jQy6cBqB-IbWYtffIb8F-74" value="(0,N)" style="text;html=1;align=right;verticalAlign=middle;resizable=0;points=[];autosize=1;strokeColor=none;fillColor=none;fontSize=8;fontFamily=Helvetica;labelBackgroundColor=none;" vertex="1" parent="1">
          <mxGeometry x="-40" y="380" width="40" height="20" as="geometry" />
        </mxCell>
        <mxCell id="jQy6cBqB-IbWYtffIb8F-75" value="(1,N)" style="text;html=1;align=right;verticalAlign=middle;resizable=0;points=[];autosize=1;strokeColor=none;fillColor=none;fontSize=8;fontFamily=Helvetica;labelBackgroundColor=none;" vertex="1" parent="1">
          <mxGeometry x="160" y="560" width="40" height="20" as="geometry" />
        </mxCell>
        <mxCell id="jQy6cBqB-IbWYtffIb8F-76" value="(0,N)" style="text;html=1;align=right;verticalAlign=middle;resizable=0;points=[];autosize=1;strokeColor=none;fillColor=none;fontSize=8;fontFamily=Helvetica;labelBackgroundColor=none;" vertex="1" parent="1">
          <mxGeometry x="-40" y="440" width="40" height="20" as="geometry" />
        </mxCell>
        <mxCell id="jQy6cBqB-IbWYtffIb8F-77" value="(0,N)" style="text;html=1;align=left;verticalAlign=middle;resizable=0;points=[];autosize=1;strokeColor=none;fillColor=none;fontSize=8;fontFamily=Helvetica;labelBackgroundColor=none;" vertex="1" parent="1">
          <mxGeometry x="40" y="400" width="40" height="20" as="geometry" />
        </mxCell>
        <mxCell id="jQy6cBqB-IbWYtffIb8F-78" value="(1,1)" style="text;html=1;align=right;verticalAlign=middle;resizable=0;points=[];autosize=1;strokeColor=none;fillColor=none;fontSize=8;fontFamily=Helvetica;labelBackgroundColor=none;" vertex="1" parent="1">
          <mxGeometry x="280" y="360" width="40" height="20" as="geometry" />
        </mxCell>
        <mxCell id="jQy6cBqB-IbWYtffIb8F-79" value="(1,1)" style="text;html=1;align=right;verticalAlign=middle;resizable=0;points=[];autosize=1;strokeColor=none;fillColor=none;fontSize=8;fontFamily=Helvetica;labelBackgroundColor=none;" vertex="1" parent="1">
          <mxGeometry x="440" y="360" width="40" height="20" as="geometry" />
        </mxCell>
        <mxCell id="jQy6cBqB-IbWYtffIb8F-80" value="(0,N)" style="text;html=1;align=right;verticalAlign=middle;resizable=0;points=[];autosize=1;strokeColor=none;fillColor=none;fontSize=8;fontFamily=Helvetica;labelBackgroundColor=none;" vertex="1" parent="1">
          <mxGeometry y="440" width="40" height="20" as="geometry" />
        </mxCell>
        <mxCell id="jQy6cBqB-IbWYtffIb8F-81" value="(1,1)" style="text;html=1;align=right;verticalAlign=middle;resizable=0;points=[];autosize=1;strokeColor=none;fillColor=none;fontSize=8;fontFamily=Helvetica;labelBackgroundColor=none;" vertex="1" parent="1">
          <mxGeometry x="200" y="700" width="40" height="20" as="geometry" />
        </mxCell>
        <mxCell id="jQy6cBqB-IbWYtffIb8F-82" value="(0,N)" style="text;html=1;align=right;verticalAlign=middle;resizable=0;points=[];autosize=1;strokeColor=none;fillColor=none;fontSize=8;fontFamily=Helvetica;labelBackgroundColor=none;" vertex="1" parent="1">
          <mxGeometry x="200" y="600" width="40" height="20" as="geometry" />
        </mxCell>
        <mxCell id="jQy6cBqB-IbWYtffIb8F-83" value="(0,N) Supervisionada" style="text;html=1;align=left;verticalAlign=middle;resizable=0;points=[];autosize=1;strokeColor=none;fillColor=none;fontSize=8;fontFamily=Helvetica;labelBackgroundColor=none;" vertex="1" parent="1">
          <mxGeometry x="560" y="340" width="100" height="20" as="geometry" />
        </mxCell>
        <mxCell id="jQy6cBqB-IbWYtffIb8F-84" value="(1,1) Supervisora" style="text;html=1;align=left;verticalAlign=middle;resizable=0;points=[];autosize=1;strokeColor=none;fillColor=none;fontSize=8;fontFamily=Helvetica;labelBackgroundColor=none;" vertex="1" parent="1">
          <mxGeometry x="560" y="400" width="90" height="20" as="geometry" />
        </mxCell>
        <mxCell id="jQy6cBqB-IbWYtffIb8F-85" value="&lt;div&gt;codCamareira&lt;br&gt;&lt;/div&gt;&lt;div&gt;&lt;br&gt;&lt;/div&gt;&lt;div&gt;supervisora&lt;/div&gt;&lt;div&gt;&lt;br&gt;&lt;/div&gt;&lt;div&gt;equipe&lt;br&gt;&lt;/div&gt;" style="text;html=1;align=left;verticalAlign=middle;resizable=0;points=[];autosize=1;strokeColor=none;fillColor=none;fontSize=8;fontFamily=Helvetica;rotation=90;labelBackgroundColor=none;" vertex="1" parent="1">
          <mxGeometry x="466" y="435" width="70" height="60" as="geometry" />
        </mxCell>
        <mxCell id="jQy6cBqB-IbWYtffIb8F-86" value="(1,N)" style="text;html=1;align=right;verticalAlign=middle;resizable=0;points=[];autosize=1;strokeColor=none;fillColor=none;fontSize=8;fontFamily=Helvetica;labelBackgroundColor=none;" vertex="1" parent="1">
          <mxGeometry x="120" y="240" width="40" height="20" as="geometry" />
        </mxCell>
        <mxCell id="jQy6cBqB-IbWYtffIb8F-87" value="&lt;div&gt;dataCheckIn&lt;/div&gt;dataCheckOu" style="text;html=1;align=right;verticalAlign=middle;resizable=0;points=[];autosize=1;strokeColor=none;fillColor=none;fontSize=8;fontFamily=Helvetica;labelBackgroundColor=none;" vertex="1" parent="1">
          <mxGeometry x="-145" y="550" width="70" height="30" as="geometry" />
        </mxCell>
        <mxCell id="jQy6cBqB-IbWYtffIb8F-91" style="edgeStyle=orthogonalEdgeStyle;rounded=0;orthogonalLoop=1;jettySize=auto;html=1;exitX=0.5;exitY=0;exitDx=0;exitDy=0;entryX=0.5;entryY=1;entryDx=0;entryDy=0;endArrow=none;endFill=0;" edge="1" parent="1" source="jQy6cBqB-IbWYtffIb8F-89" target="jQy6cBqB-IbWYtffIb8F-28">
          <mxGeometry relative="1" as="geometry" />
        </mxCell>
        <mxCell id="jQy6cBqB-IbWYtffIb8F-89" value="Responsável" style="rhombus;whiteSpace=wrap;html=1;rounded=0;strokeWidth=1;fontFamily=Helvetica;fontSize=11;labelBackgroundColor=none;" vertex="1" parent="1">
          <mxGeometry x="40" y="280" width="80" height="40" as="geometry" />
        </mxCell>
        <mxCell id="jQy6cBqB-IbWYtffIb8F-93" value="(1,1)" style="text;html=1;align=left;verticalAlign=middle;resizable=0;points=[];autosize=1;strokeColor=none;fillColor=none;fontSize=8;fontFamily=Helvetica;labelBackgroundColor=none;" vertex="1" parent="1">
          <mxGeometry x="160" y="240" width="40" height="20" as="geometry" />
        </mxCell>
        <mxCell id="jQy6cBqB-IbWYtffIb8F-95" value="(0,N)" style="text;html=1;align=left;verticalAlign=middle;resizable=0;points=[];autosize=1;strokeColor=none;fillColor=none;fontSize=8;fontFamily=Helvetica;labelBackgroundColor=none;" vertex="1" parent="1">
          <mxGeometry y="380" width="40" height="20" as="geometry" />
        </mxCell>
      </root>
    </mxGraphModel>
  </diagram>
</mxfile>
